<mxfile host="65bd71144e" modified="2020-11-19T22:49:59.827Z" agent="5.0 (X11; Linux x86_64) AppleWebKit/537.36 (KHTML, like Gecko) Code/1.51.1 Chrome/83.0.4103.122 Electron/9.3.3 Safari/537.36" etag="2_HQJzFWgVU7tbnRY9S4" version="13.6.5">
    <diagram id="G2nHKKEePccfupFTCBAQ" name="Page-1">
        <mxGraphModel dx="2054" dy="1670" grid="1" gridSize="10" guides="1" tooltips="1" connect="1" arrows="1" fold="1" page="1" pageScale="1" pageWidth="850" pageHeight="1100" math="0" shadow="0">
            <root>
                <mxCell id="0"/>
                <mxCell id="1" parent="0"/>
                <mxCell id="lBiNa0GOa4pwr0_ujXBW-70" style="edgeStyle=orthogonalEdgeStyle;rounded=0;orthogonalLoop=1;jettySize=auto;html=1;entryX=0.5;entryY=1;entryDx=0;entryDy=0;" parent="1" source="lBiNa0GOa4pwr0_ujXBW-1" target="lBiNa0GOa4pwr0_ujXBW-69" edge="1">
                    <mxGeometry relative="1" as="geometry"/>
                </mxCell>
                <mxCell id="lBiNa0GOa4pwr0_ujXBW-85" style="edgeStyle=orthogonalEdgeStyle;rounded=0;orthogonalLoop=1;jettySize=auto;html=1;" parent="1" source="lBiNa0GOa4pwr0_ujXBW-1" target="lBiNa0GOa4pwr0_ujXBW-4" edge="1">
                    <mxGeometry relative="1" as="geometry"/>
                </mxCell>
                <mxCell id="lBiNa0GOa4pwr0_ujXBW-87" style="edgeStyle=orthogonalEdgeStyle;rounded=0;orthogonalLoop=1;jettySize=auto;html=1;entryX=1;entryY=0.5;entryDx=0;entryDy=0;" parent="1" source="lBiNa0GOa4pwr0_ujXBW-1" target="lBiNa0GOa4pwr0_ujXBW-2" edge="1">
                    <mxGeometry relative="1" as="geometry"/>
                </mxCell>
                <mxCell id="3" style="edgeStyle=orthogonalEdgeStyle;rounded=0;orthogonalLoop=1;jettySize=auto;html=1;entryX=1;entryY=0.5;entryDx=0;entryDy=0;" parent="1" source="lBiNa0GOa4pwr0_ujXBW-1" target="2" edge="1">
                    <mxGeometry relative="1" as="geometry"/>
                </mxCell>
                <mxCell id="5" style="edgeStyle=orthogonalEdgeStyle;rounded=0;orthogonalLoop=1;jettySize=auto;html=1;entryX=0.5;entryY=0;entryDx=0;entryDy=0;" edge="1" parent="1" source="lBiNa0GOa4pwr0_ujXBW-1" target="4">
                    <mxGeometry relative="1" as="geometry"/>
                </mxCell>
                <mxCell id="lBiNa0GOa4pwr0_ujXBW-1" value="&lt;font size=&quot;1&quot;&gt;&lt;span style=&quot;background-color: rgb(255 , 255 , 255) ; font-size: 30px&quot;&gt;engine&lt;/span&gt;&lt;/font&gt;" style="rounded=0;whiteSpace=wrap;html=1;" parent="1" vertex="1">
                    <mxGeometry x="365" y="40" width="120" height="60" as="geometry"/>
                </mxCell>
                <mxCell id="lBiNa0GOa4pwr0_ujXBW-66" style="edgeStyle=orthogonalEdgeStyle;rounded=0;orthogonalLoop=1;jettySize=auto;html=1;" parent="1" source="lBiNa0GOa4pwr0_ujXBW-2" target="lBiNa0GOa4pwr0_ujXBW-64" edge="1">
                    <mxGeometry relative="1" as="geometry"/>
                </mxCell>
                <mxCell id="lBiNa0GOa4pwr0_ujXBW-68" style="edgeStyle=orthogonalEdgeStyle;rounded=0;orthogonalLoop=1;jettySize=auto;html=1;entryX=0.5;entryY=0;entryDx=0;entryDy=0;" parent="1" source="lBiNa0GOa4pwr0_ujXBW-2" target="lBiNa0GOa4pwr0_ujXBW-67" edge="1">
                    <mxGeometry relative="1" as="geometry"/>
                </mxCell>
                <mxCell id="lBiNa0GOa4pwr0_ujXBW-76" style="edgeStyle=orthogonalEdgeStyle;rounded=0;orthogonalLoop=1;jettySize=auto;html=1;" parent="1" source="lBiNa0GOa4pwr0_ujXBW-2" target="lBiNa0GOa4pwr0_ujXBW-53" edge="1">
                    <mxGeometry relative="1" as="geometry">
                        <mxPoint x="35" y="-160" as="targetPoint"/>
                    </mxGeometry>
                </mxCell>
                <mxCell id="lBiNa0GOa4pwr0_ujXBW-2" value="asset" style="rounded=0;whiteSpace=wrap;html=1;" parent="1" vertex="1">
                    <mxGeometry x="85" y="40" width="120" height="60" as="geometry"/>
                </mxCell>
                <mxCell id="lBiNa0GOa4pwr0_ujXBW-8" style="edgeStyle=orthogonalEdgeStyle;rounded=0;orthogonalLoop=1;jettySize=auto;html=1;" parent="1" source="lBiNa0GOa4pwr0_ujXBW-4" target="lBiNa0GOa4pwr0_ujXBW-6" edge="1">
                    <mxGeometry relative="1" as="geometry"/>
                </mxCell>
                <mxCell id="lBiNa0GOa4pwr0_ujXBW-10" style="edgeStyle=orthogonalEdgeStyle;rounded=0;orthogonalLoop=1;jettySize=auto;html=1;entryX=0.5;entryY=0;entryDx=0;entryDy=0;" parent="1" source="lBiNa0GOa4pwr0_ujXBW-4" target="lBiNa0GOa4pwr0_ujXBW-9" edge="1">
                    <mxGeometry relative="1" as="geometry"/>
                </mxCell>
                <mxCell id="lBiNa0GOa4pwr0_ujXBW-4" value="object" style="rounded=0;whiteSpace=wrap;html=1;" parent="1" vertex="1">
                    <mxGeometry x="730" y="240" width="120" height="60" as="geometry"/>
                </mxCell>
                <mxCell id="lBiNa0GOa4pwr0_ujXBW-20" style="edgeStyle=orthogonalEdgeStyle;rounded=0;orthogonalLoop=1;jettySize=auto;html=1;entryX=0;entryY=0.5;entryDx=0;entryDy=0;" parent="1" source="lBiNa0GOa4pwr0_ujXBW-6" target="lBiNa0GOa4pwr0_ujXBW-19" edge="1">
                    <mxGeometry relative="1" as="geometry"/>
                </mxCell>
                <mxCell id="lBiNa0GOa4pwr0_ujXBW-48" style="edgeStyle=orthogonalEdgeStyle;rounded=0;orthogonalLoop=1;jettySize=auto;html=1;entryX=0.5;entryY=0;entryDx=0;entryDy=0;" parent="1" source="lBiNa0GOa4pwr0_ujXBW-6" target="lBiNa0GOa4pwr0_ujXBW-13" edge="1">
                    <mxGeometry relative="1" as="geometry"/>
                </mxCell>
                <mxCell id="lBiNa0GOa4pwr0_ujXBW-49" style="edgeStyle=orthogonalEdgeStyle;rounded=0;orthogonalLoop=1;jettySize=auto;html=1;" parent="1" source="lBiNa0GOa4pwr0_ujXBW-6" target="lBiNa0GOa4pwr0_ujXBW-12" edge="1">
                    <mxGeometry relative="1" as="geometry"/>
                </mxCell>
                <mxCell id="lBiNa0GOa4pwr0_ujXBW-58" style="edgeStyle=orthogonalEdgeStyle;rounded=0;orthogonalLoop=1;jettySize=auto;html=1;" parent="1" source="lBiNa0GOa4pwr0_ujXBW-6" target="lBiNa0GOa4pwr0_ujXBW-15" edge="1">
                    <mxGeometry relative="1" as="geometry"/>
                </mxCell>
                <mxCell id="lBiNa0GOa4pwr0_ujXBW-59" style="edgeStyle=orthogonalEdgeStyle;rounded=0;orthogonalLoop=1;jettySize=auto;html=1;" parent="1" source="lBiNa0GOa4pwr0_ujXBW-6" target="lBiNa0GOa4pwr0_ujXBW-57" edge="1">
                    <mxGeometry relative="1" as="geometry"/>
                </mxCell>
                <mxCell id="lBiNa0GOa4pwr0_ujXBW-6" value="plane" style="rounded=0;whiteSpace=wrap;html=1;" parent="1" vertex="1">
                    <mxGeometry x="1260" y="310" width="120" height="60" as="geometry"/>
                </mxCell>
                <mxCell id="lBiNa0GOa4pwr0_ujXBW-25" style="edgeStyle=orthogonalEdgeStyle;rounded=0;orthogonalLoop=1;jettySize=auto;html=1;" parent="1" source="lBiNa0GOa4pwr0_ujXBW-9" target="lBiNa0GOa4pwr0_ujXBW-23" edge="1">
                    <mxGeometry relative="1" as="geometry"/>
                </mxCell>
                <mxCell id="lBiNa0GOa4pwr0_ujXBW-29" style="edgeStyle=orthogonalEdgeStyle;rounded=0;orthogonalLoop=1;jettySize=auto;html=1;" parent="1" source="lBiNa0GOa4pwr0_ujXBW-9" target="lBiNa0GOa4pwr0_ujXBW-28" edge="1">
                    <mxGeometry relative="1" as="geometry"/>
                </mxCell>
                <mxCell id="lBiNa0GOa4pwr0_ujXBW-30" style="edgeStyle=orthogonalEdgeStyle;rounded=0;orthogonalLoop=1;jettySize=auto;html=1;entryX=0.5;entryY=0;entryDx=0;entryDy=0;" parent="1" source="lBiNa0GOa4pwr0_ujXBW-9" target="lBiNa0GOa4pwr0_ujXBW-27" edge="1">
                    <mxGeometry relative="1" as="geometry"/>
                </mxCell>
                <mxCell id="lBiNa0GOa4pwr0_ujXBW-9" value="&lt;div&gt;environement&lt;/div&gt;" style="rounded=0;whiteSpace=wrap;html=1;" parent="1" vertex="1">
                    <mxGeometry x="520" y="340" width="120" height="60" as="geometry"/>
                </mxCell>
                <mxCell id="lBiNa0GOa4pwr0_ujXBW-12" value="SPRITE" style="rounded=0;whiteSpace=wrap;html=1;" parent="1" vertex="1">
                    <mxGeometry x="1180" y="490" width="120" height="60" as="geometry"/>
                </mxCell>
                <mxCell id="lBiNa0GOa4pwr0_ujXBW-13" value="POSITION" style="rounded=0;whiteSpace=wrap;html=1;" parent="1" vertex="1">
                    <mxGeometry x="1340" y="490" width="120" height="60" as="geometry"/>
                </mxCell>
                <mxCell id="lBiNa0GOa4pwr0_ujXBW-15" value="VECTEUR" style="rounded=0;whiteSpace=wrap;html=1;" parent="1" vertex="1">
                    <mxGeometry x="1500" y="490" width="120" height="60" as="geometry"/>
                </mxCell>
                <mxCell id="lBiNa0GOa4pwr0_ujXBW-19" value="ANCIEN ELEMENT" style="rounded=0;whiteSpace=wrap;html=1;" parent="1" vertex="1">
                    <mxGeometry x="1660" y="310" width="120" height="60" as="geometry"/>
                </mxCell>
                <mxCell id="lBiNa0GOa4pwr0_ujXBW-21" value="ELEMENT SUIVANT" style="rounded=0;whiteSpace=wrap;html=1;" parent="1" vertex="1">
                    <mxGeometry x="1660" y="380" width="120" height="60" as="geometry"/>
                </mxCell>
                <mxCell id="lBiNa0GOa4pwr0_ujXBW-23" value="BACKGROUND" style="rounded=0;whiteSpace=wrap;html=1;" parent="1" vertex="1">
                    <mxGeometry x="390" y="490" width="120" height="60" as="geometry"/>
                </mxCell>
                <mxCell id="lBiNa0GOa4pwr0_ujXBW-35" style="edgeStyle=orthogonalEdgeStyle;rounded=0;orthogonalLoop=1;jettySize=auto;html=1;entryX=0.5;entryY=0;entryDx=0;entryDy=0;" parent="1" source="lBiNa0GOa4pwr0_ujXBW-27" target="lBiNa0GOa4pwr0_ujXBW-34" edge="1">
                    <mxGeometry relative="1" as="geometry"/>
                </mxCell>
                <mxCell id="lBiNa0GOa4pwr0_ujXBW-37" style="edgeStyle=orthogonalEdgeStyle;rounded=0;orthogonalLoop=1;jettySize=auto;html=1;entryX=0.5;entryY=0;entryDx=0;entryDy=0;" parent="1" source="lBiNa0GOa4pwr0_ujXBW-27" target="lBiNa0GOa4pwr0_ujXBW-36" edge="1">
                    <mxGeometry relative="1" as="geometry"/>
                </mxCell>
                <mxCell id="lBiNa0GOa4pwr0_ujXBW-27" value="CANON" style="rounded=0;whiteSpace=wrap;html=1;" parent="1" vertex="1">
                    <mxGeometry x="520" y="490" width="120" height="60" as="geometry"/>
                </mxCell>
                <mxCell id="lBiNa0GOa4pwr0_ujXBW-28" value="TARGET" style="rounded=0;whiteSpace=wrap;html=1;" parent="1" vertex="1">
                    <mxGeometry x="650" y="490" width="120" height="60" as="geometry"/>
                </mxCell>
                <mxCell id="lBiNa0GOa4pwr0_ujXBW-34" value="SPRITE" style="rounded=0;whiteSpace=wrap;html=1;" parent="1" vertex="1">
                    <mxGeometry x="460" y="590" width="120" height="60" as="geometry"/>
                </mxCell>
                <mxCell id="lBiNa0GOa4pwr0_ujXBW-36" value="VECTOR" style="rounded=0;whiteSpace=wrap;html=1;" parent="1" vertex="1">
                    <mxGeometry x="580" y="590" width="120" height="60" as="geometry"/>
                </mxCell>
                <mxCell id="lBiNa0GOa4pwr0_ujXBW-62" style="edgeStyle=orthogonalEdgeStyle;rounded=0;orthogonalLoop=1;jettySize=auto;html=1;entryX=1;entryY=0.5;entryDx=0;entryDy=0;" parent="1" source="lBiNa0GOa4pwr0_ujXBW-53" target="lBiNa0GOa4pwr0_ujXBW-61" edge="1">
                    <mxGeometry relative="1" as="geometry"/>
                </mxCell>
                <mxCell id="lBiNa0GOa4pwr0_ujXBW-86" style="edgeStyle=orthogonalEdgeStyle;rounded=0;orthogonalLoop=1;jettySize=auto;html=1;entryX=1;entryY=0.5;entryDx=0;entryDy=0;" parent="1" source="lBiNa0GOa4pwr0_ujXBW-53" target="lBiNa0GOa4pwr0_ujXBW-60" edge="1">
                    <mxGeometry relative="1" as="geometry"/>
                </mxCell>
                <mxCell id="lBiNa0GOa4pwr0_ujXBW-53" value="&lt;div&gt;plane_set&lt;/div&gt;TABLEAU STRUCT" style="rounded=0;whiteSpace=wrap;html=1;" parent="1" vertex="1">
                    <mxGeometry x="-280" y="40" width="120" height="60" as="geometry"/>
                </mxCell>
                <mxCell id="lBiNa0GOa4pwr0_ujXBW-57" value="RECTANGLE SPRITE" style="rounded=0;whiteSpace=wrap;html=1;" parent="1" vertex="1">
                    <mxGeometry x="1020" y="490" width="120" height="60" as="geometry"/>
                </mxCell>
                <mxCell id="lBiNa0GOa4pwr0_ujXBW-60" value="RECT" style="rounded=0;whiteSpace=wrap;html=1;" parent="1" vertex="1">
                    <mxGeometry x="-440" y="-40" width="120" height="60" as="geometry"/>
                </mxCell>
                <mxCell id="lBiNa0GOa4pwr0_ujXBW-61" value="IMAGE" style="rounded=0;whiteSpace=wrap;html=1;" parent="1" vertex="1">
                    <mxGeometry x="-440" y="40" width="120" height="60" as="geometry"/>
                </mxCell>
                <mxCell id="lBiNa0GOa4pwr0_ujXBW-64" value="&lt;div&gt;MUSIQUE&lt;/div&gt;" style="rounded=0;whiteSpace=wrap;html=1;" parent="1" vertex="1">
                    <mxGeometry x="-95" y="-40" width="120" height="60" as="geometry"/>
                </mxCell>
                <mxCell id="lBiNa0GOa4pwr0_ujXBW-78" style="edgeStyle=orthogonalEdgeStyle;rounded=0;orthogonalLoop=1;jettySize=auto;html=1;" parent="1" source="lBiNa0GOa4pwr0_ujXBW-67" target="lBiNa0GOa4pwr0_ujXBW-77" edge="1">
                    <mxGeometry relative="1" as="geometry"/>
                </mxCell>
                <mxCell id="lBiNa0GOa4pwr0_ujXBW-67" value="&lt;div&gt;sounds&lt;/div&gt;" style="rounded=0;whiteSpace=wrap;html=1;" parent="1" vertex="1">
                    <mxGeometry x="-95" y="130" width="120" height="60" as="geometry"/>
                </mxCell>
                <mxCell id="lBiNa0GOa4pwr0_ujXBW-73" style="edgeStyle=orthogonalEdgeStyle;rounded=0;orthogonalLoop=1;jettySize=auto;html=1;entryX=0.5;entryY=1;entryDx=0;entryDy=0;" parent="1" source="lBiNa0GOa4pwr0_ujXBW-69" target="lBiNa0GOa4pwr0_ujXBW-71" edge="1">
                    <mxGeometry relative="1" as="geometry"/>
                </mxCell>
                <mxCell id="lBiNa0GOa4pwr0_ujXBW-74" style="edgeStyle=orthogonalEdgeStyle;rounded=0;orthogonalLoop=1;jettySize=auto;html=1;" parent="1" source="lBiNa0GOa4pwr0_ujXBW-69" target="lBiNa0GOa4pwr0_ujXBW-72" edge="1">
                    <mxGeometry relative="1" as="geometry"/>
                </mxCell>
                <mxCell id="lBiNa0GOa4pwr0_ujXBW-69" value="Window" style="rounded=0;whiteSpace=wrap;html=1;" parent="1" vertex="1">
                    <mxGeometry x="730" y="-150" width="120" height="60" as="geometry"/>
                </mxCell>
                <mxCell id="lBiNa0GOa4pwr0_ujXBW-71" value="Window" style="rounded=0;whiteSpace=wrap;html=1;" parent="1" vertex="1">
                    <mxGeometry x="730" y="-240" width="120" height="60" as="geometry"/>
                </mxCell>
                <mxCell id="lBiNa0GOa4pwr0_ujXBW-72" value="Window_size" style="rounded=0;whiteSpace=wrap;html=1;" parent="1" vertex="1">
                    <mxGeometry x="880" y="-150" width="120" height="60" as="geometry"/>
                </mxCell>
                <mxCell id="lBiNa0GOa4pwr0_ujXBW-80" style="edgeStyle=orthogonalEdgeStyle;rounded=0;orthogonalLoop=1;jettySize=auto;html=1;" parent="1" source="lBiNa0GOa4pwr0_ujXBW-77" target="lBiNa0GOa4pwr0_ujXBW-79" edge="1">
                    <mxGeometry relative="1" as="geometry"/>
                </mxCell>
                <mxCell id="lBiNa0GOa4pwr0_ujXBW-82" style="edgeStyle=orthogonalEdgeStyle;rounded=0;orthogonalLoop=1;jettySize=auto;html=1;" parent="1" source="lBiNa0GOa4pwr0_ujXBW-77" target="lBiNa0GOa4pwr0_ujXBW-81" edge="1">
                    <mxGeometry relative="1" as="geometry"/>
                </mxCell>
                <mxCell id="lBiNa0GOa4pwr0_ujXBW-84" style="edgeStyle=orthogonalEdgeStyle;rounded=0;orthogonalLoop=1;jettySize=auto;html=1;" parent="1" source="lBiNa0GOa4pwr0_ujXBW-77" target="lBiNa0GOa4pwr0_ujXBW-83" edge="1">
                    <mxGeometry relative="1" as="geometry"/>
                </mxCell>
                <mxCell id="lBiNa0GOa4pwr0_ujXBW-77" value="VOIR ENUM" style="rounded=0;whiteSpace=wrap;html=1;" parent="1" vertex="1">
                    <mxGeometry x="-95" y="240" width="120" height="60" as="geometry"/>
                </mxCell>
                <mxCell id="lBiNa0GOa4pwr0_ujXBW-79" value="HIT" style="rounded=0;whiteSpace=wrap;html=1;" parent="1" vertex="1">
                    <mxGeometry x="-235" y="330" width="120" height="60" as="geometry"/>
                </mxCell>
                <mxCell id="lBiNa0GOa4pwr0_ujXBW-81" value="SHOT" style="rounded=0;whiteSpace=wrap;html=1;" parent="1" vertex="1">
                    <mxGeometry x="-95" y="330" width="120" height="60" as="geometry"/>
                </mxCell>
                <mxCell id="lBiNa0GOa4pwr0_ujXBW-83" value="PLANES SOUND ?" style="rounded=0;whiteSpace=wrap;html=1;" parent="1" vertex="1">
                    <mxGeometry x="45" y="330" width="120" height="60" as="geometry"/>
                </mxCell>
                <mxCell id="2" value="time" style="rounded=0;whiteSpace=wrap;html=1;" parent="1" vertex="1">
                    <mxGeometry x="260" y="-180" width="120" height="60" as="geometry"/>
                </mxCell>
                <mxCell id="4" value="event" style="rounded=0;whiteSpace=wrap;html=1;" vertex="1" parent="1">
                    <mxGeometry x="270" y="220" width="120" height="60" as="geometry"/>
                </mxCell>
            </root>
        </mxGraphModel>
    </diagram>
</mxfile>
